<?xml version="1.0" encoding="UTF-8" standalone="no"?>
<!DOCTYPE svg PUBLIC "-//W3C//DTD SVG 1.1//EN" "http://www.w3.org/Graphics/SVG/1.1/DTD/svg11.dtd">
<svg width="100%" height="100%" viewBox="0 0 596 516" version="1.1" xmlns="http://www.w3.org/2000/svg" xmlnsxlink="http://www.w3.org/1999/xlink" xmlspace="preserve" xmlnsserif="http://www.serif.com/" style="fill-rule:evenodd;clip-rule:evenodd;stroke-linecap:round;stroke-linejoin:round;stroke-miterlimit:1.5;">
    <g>
        <ellipse cx="389" cy="260.215" rx="33" ry="33.215" style="fill:none;stroke:rgb(29,195,141);stroke-width:36px;"/>
        <path d="M145,330C159.174,318.241 249.961,248.763 262.222,247.099C277.804,244.984 348.997,358.938 364,373C367.245,376.042 407.975,356.038 412.105,354.387C419.517,351.424 427.514,354.234 456,403" style="fill:none;stroke:rgb(29,195,141);stroke-width:36px;"/>
        <path d="M170,174L139,357C134.353,378.858 142.78,394.452 168,402L410,443C437.861,444.363 450.376,434.547 456,414L490,231C492.312,212.527 486.545,199.237 467,192L215,144C190.042,141.743 176.964,154.109 170,174Z" style="fill:none;stroke:rgb(29,195,141);stroke-width:36px;"/>
        <path d="M437.028,186.291L413,73C406.42,48.524 389.541,45.212 354,52L137.781,97C110.04,104.454 99.374,120.68 102,143.735L137.781,365" style="fill:none;stroke:rgb(29,195,141);stroke-width:36px;"/>
    </g>
</svg>
