<?xml version="1.0" standalone="no"?>
<!DOCTYPE svg PUBLIC "-//W3C//DTD SVG 20010904//EN"
 "http://www.w3.org/TR/2001/REC-SVG-20010904/DTD/svg10.dtd">
<svg version="1.0" xmlns="http://www.w3.org/2000/svg"
 width="596.000000pt" height="596.000000pt" viewBox="0 0 596.000000 596.000000"
 preserveAspectRatio="xMidYMid meet">
<metadata>
Created by potrace 1.14, written by Peter Selinger 2001-2017
</metadata>
<g transform="translate(0.000000,596.000000) scale(0.100000,-0.100000)"
fill="#000000" stroke="none">
<path d="M3668 5244 c-2 -1 -26 -6 -53 -9 -28 -4 -126 -23 -220 -42 -213 -43
-180 -36 -380 -78 -216 -46 -194 -41 -310 -65 -113 -23 -105 -21 -240 -50 -55
-12 -111 -24 -125 -26 -27 -5 -353 -73 -385 -80 -11 -2 -31 -6 -45 -9 -14 -3
-142 -29 -285 -59 -143 -30 -271 -57 -285 -60 -70 -13 -228 -82 -258 -112 -7
-8 -17 -14 -21 -14 -11 0 -93 -80 -117 -115 -103 -145 -128 -286 -90 -505 3
-14 7 -43 11 -65 3 -22 12 -78 20 -125 8 -47 19 -114 24 -150 6 -36 12 -76 15
-90 2 -14 10 -59 16 -100 6 -41 14 -86 16 -100 2 -14 7 -41 10 -60 2 -19 9
-57 14 -85 5 -27 12 -72 16 -100 3 -27 8 -59 10 -70 2 -11 9 -49 15 -85 5 -36
12 -78 15 -95 3 -16 7 -43 10 -60 3 -16 6 -39 8 -50 2 -11 7 -45 11 -75 4 -30
8 -57 10 -60 2 -3 6 -26 10 -50 3 -25 10 -70 15 -100 5 -30 11 -71 14 -90 3
-19 7 -44 10 -55 2 -11 7 -42 10 -70 4 -27 9 -57 11 -65 2 -8 6 -31 9 -50 3
-19 12 -80 21 -135 9 -55 18 -125 21 -155 4 -53 6 -66 20 -135 10 -50 62 -148
101 -191 92 -100 232 -175 368 -198 17 -3 113 -19 215 -36 102 -18 199 -34
215 -36 17 -3 57 -10 90 -16 33 -5 74 -12 90 -15 17 -2 41 -7 55 -9 14 -3 36
-7 50 -8 14 -2 39 -6 55 -10 17 -3 44 -8 60 -10 17 -3 46 -7 65 -11 19 -3 49
-8 65 -11 17 -3 39 -6 50 -8 11 -2 34 -6 50 -9 17 -4 46 -9 65 -11 19 -3 46
-7 60 -10 22 -5 148 -26 245 -42 17 -3 57 -10 90 -16 33 -5 74 -12 90 -15 17
-2 71 -11 120 -20 50 -8 99 -17 110 -18 11 -2 52 -9 90 -15 39 -7 79 -14 90
-15 11 -2 20 -4 20 -5 0 -1 11 -3 25 -4 14 -1 39 -5 55 -9 17 -3 48 -9 70 -12
22 -3 53 -8 68 -11 16 -3 41 -8 55 -11 15 -3 82 -7 149 -8 134 -4 214 11 313
58 56 27 149 107 186 162 25 37 74 140 79 167 2 11 6 27 9 36 3 9 8 33 11 52
3 19 14 80 25 135 11 55 21 111 24 125 2 14 11 66 21 115 9 50 19 101 21 115
9 51 36 196 40 215 3 11 7 36 10 55 3 19 12 67 20 105 8 39 17 86 20 105 2 19
14 80 24 135 11 55 22 114 24 130 2 17 6 37 9 45 3 8 10 49 17 90 7 41 14 84
17 95 10 50 29 156 52 290 39 220 0 366 -130 496 -75 75 -172 122 -309 150
-58 12 -106 23 -108 24 -1 1 -4 11 -6 21 -2 11 -12 55 -21 99 -10 44 -19 87
-20 95 -1 8 -5 26 -8 40 -4 14 -9 36 -11 50 -2 14 -9 45 -15 70 -5 25 -12 56
-15 70 -2 14 -11 57 -20 95 -8 39 -17 82 -20 95 -10 48 -16 75 -26 120 -5 25
-12 56 -14 70 -14 83 -57 255 -74 290 -21 47 -67 114 -101 149 -87 89 -208
130 -381 129 -65 0 -121 -2 -122 -4z m245 -379 c24 -23 41 -62 51 -115 9 -54
37 -184 41 -189 2 -4 6 -27 10 -51 3 -25 11 -63 17 -85 5 -22 11 -49 13 -60 2
-11 15 -76 30 -145 15 -69 29 -134 31 -145 2 -11 8 -42 14 -70 18 -82 18 -85
10 -80 -4 3 -25 7 -46 11 -22 3 -59 10 -84 15 -25 5 -58 12 -75 15 -16 2 -64
11 -105 19 -129 26 -174 34 -210 40 -19 3 -80 15 -135 26 -55 11 -109 22 -120
24 -19 2 -176 32 -220 41 -11 3 -36 7 -55 10 -19 3 -66 12 -105 20 -38 8 -108
22 -155 30 -47 8 -95 17 -107 19 -13 3 -35 7 -50 10 -66 13 -133 26 -203 40
-41 8 -100 19 -130 24 -30 6 -66 13 -80 15 -155 33 -290 20 -415 -39 -133 -63
-233 -179 -295 -340 -12 -31 -16 -48 -25 -100 -3 -16 -10 -56 -16 -88 -5 -32
-12 -70 -14 -85 -5 -38 -50 -304 -59 -348 -2 -12 -7 -39 -10 -60 -3 -22 -8
-50 -11 -64 -8 -45 -17 -105 -18 -118 0 -14 -10 -7 -13 11 -1 7 -4 32 -7 57
-4 25 -9 56 -12 70 -5 23 -10 57 -21 130 -2 14 -5 36 -8 50 -7 40 -37 223 -41
245 -13 93 -21 143 -29 180 -2 11 -7 40 -10 65 -3 25 -8 54 -10 65 -6 34 -19
109 -22 130 -1 11 -5 40 -8 65 -3 25 -8 55 -10 68 -8 36 22 118 54 150 45 46
143 85 264 106 16 3 55 11 85 17 69 14 71 15 101 22 21 5 361 76 440 91 14 3
34 7 45 10 37 8 170 35 204 41 19 3 38 8 41 10 4 3 25 7 46 11 22 3 55 9 74
14 19 5 53 12 75 15 22 3 54 10 70 15 17 4 48 12 70 16 22 4 45 8 50 9 6 2 27
6 49 9 21 3 42 8 46 11 3 2 21 7 38 10 62 10 87 15 110 20 46 10 144 31 188
39 12 3 64 14 115 25 52 11 110 23 129 26 19 3 42 8 50 10 29 8 75 16 114 20
21 2 41 6 43 9 3 2 46 4 97 4 84 0 95 -2 119 -23z m-1643 -951 c19 -3 67 -12
105 -20 39 -8 86 -17 105 -20 19 -3 42 -7 50 -9 8 -3 32 -7 54 -11 21 -3 48
-8 60 -10 11 -3 32 -7 46 -10 14 -2 48 -9 75 -14 28 -6 61 -12 75 -15 14 -3
50 -10 80 -15 30 -6 78 -15 105 -20 28 -5 64 -12 80 -15 147 -28 183 -35 200
-38 50 -10 102 -20 120 -22 11 -2 54 -10 95 -19 41 -8 100 -19 130 -25 30 -6
65 -12 76 -15 12 -2 38 -7 59 -10 20 -4 40 -8 44 -10 3 -2 28 -7 55 -10 27 -4
52 -9 56 -11 3 -2 26 -6 50 -10 39 -6 71 -12 155 -28 52 -11 102 -20 120 -22
11 -2 38 -7 60 -13 22 -5 47 -10 55 -10 8 -1 22 -3 30 -5 8 -2 38 -8 65 -12
28 -5 52 -10 55 -10 3 -1 30 -7 61 -13 62 -14 117 -54 125 -92 8 -33 8 -108 1
-140 -15 -63 -18 -77 -23 -110 -3 -19 -7 -46 -10 -60 -21 -113 -45 -239 -48
-256 -2 -12 -7 -37 -10 -55 -3 -19 -8 -45 -11 -59 -2 -14 -14 -74 -25 -135
-12 -60 -24 -123 -27 -140 -4 -16 -7 -34 -8 -40 0 -9 -8 -49 -21 -120 -2 -11
-9 -47 -15 -80 -6 -33 -12 -64 -13 -70 -8 -33 -20 -111 -18 -117 1 -5 -2 -8
-8 -8 -5 0 -10 3 -10 8 0 20 -163 173 -190 178 -3 0 -14 4 -25 8 -11 4 -29 11
-40 15 -21 8 -69 7 -118 -3 -15 -2 -76 -27 -135 -54 -152 -70 -253 -114 -256
-110 -7 11 -71 94 -76 98 -3 3 -9 13 -15 22 -5 9 -45 65 -87 125 -43 59 -82
115 -88 123 -333 481 -573 770 -695 837 -72 39 -157 39 -240 -1 -52 -25 -271
-160 -285 -176 -12 -14 -111 -80 -119 -80 -5 0 -11 -3 -13 -8 -1 -4 -61 -50
-133 -102 -71 -52 -131 -98 -133 -102 -2 -4 -8 -8 -13 -8 -6 0 -21 -10 -35
-23 -13 -13 -38 -31 -55 -41 l-31 -18 6 28 c3 16 9 46 12 68 3 21 7 48 10 59
2 12 6 37 9 57 3 20 8 47 10 60 3 14 7 36 9 50 7 41 20 115 21 120 1 3 5 30 9
60 9 56 12 76 21 120 2 14 7 40 10 58 3 17 7 47 10 65 3 17 8 45 11 60 3 16 7
38 8 50 3 24 16 101 22 132 3 11 7 38 10 60 12 82 70 176 123 197 14 6 42 12
61 15 19 3 36 6 37 7 2 1 35 -4 75 -11 40 -7 89 -15 108 -19z m373 -1058 c12
-13 35 -39 52 -57 46 -52 319 -418 430 -577 360 -514 414 -574 519 -574 83 1
231 52 434 152 l64 31 24 -28 c28 -32 161 -230 190 -283 10 -19 22 -37 26 -40
12 -10 -25 -95 -53 -122 -16 -16 -32 -28 -36 -29 -5 0 -17 -3 -28 -6 -31 -9
-186 -9 -230 0 -35 7 -504 87 -595 101 -19 3 -46 8 -60 11 -14 3 -56 10 -95
16 -38 6 -81 13 -95 15 -14 3 -34 6 -45 8 -11 2 -36 6 -55 10 -19 3 -48 8 -65
11 -16 3 -57 10 -90 15 -88 15 -115 19 -170 30 -27 6 -63 12 -80 14 -29 4
-192 31 -245 40 -39 8 -162 28 -190 31 -14 2 -41 7 -60 11 -19 3 -44 8 -55 10
-11 2 -31 5 -45 8 -14 2 -56 9 -95 15 -38 6 -81 13 -95 16 -14 3 -59 10 -100
16 -139 21 -233 83 -241 159 -2 22 7 103 17 155 3 11 7 38 10 60 10 62 20 81
61 111 21 15 43 33 48 39 6 6 26 22 45 35 19 13 37 27 40 30 3 3 30 24 60 45
30 22 62 45 70 52 28 22 168 128 190 143 12 8 41 29 64 46 119 89 169 125 248
179 107 73 190 125 201 125 4 0 18 -11 30 -24z"/>
<path d="M3775 3456 c-105 -27 -181 -70 -253 -146 -189 -195 -186 -519 6 -707
84 -83 107 -98 197 -129 70 -23 83 -25 170 -25 250 -1 446 170 500 436 9 40 9
40 1 120 -4 39 -12 84 -17 100 -24 66 -60 136 -79 155 -11 11 -18 20 -15 20
12 0 -62 67 -108 98 -39 27 -94 56 -117 61 -3 1 -25 7 -50 15 -59 17 -172 18
-235 2z m153 -352 c38 -8 85 -51 99 -90 16 -45 10 -110 -14 -142 -43 -57 -127
-81 -185 -52 -58 30 -96 105 -84 165 3 11 5 25 5 32 1 18 70 81 94 86 37 7 53
7 85 1z"/>
</g>
</svg>
